<?xml version="1.0" encoding="utf-8"?>
<!-- Generator: Adobe Illustrator 23.0.3, SVG Export Plug-In . SVG Version: 6.00 Build 0)  -->
<svg version="1.1" xmlns="http://www.w3.org/2000/svg" xmlns:xlink="http://www.w3.org/1999/xlink" x="0px" y="0px"
	 viewBox="0 0 2048 512" style="enable-background:new 0 0 2048 512;" xml:space="preserve">
<style type="text/css">
	.st0{display:none;}
	.st1{display:inline;}
	.st2{fill:#FFFFFF;}
	.st3{opacity:0.25;fill:#B0B0B0;}
</style>
<g id="背景" class="st0">
	<g class="st1">
		<rect x="0.5" y="0.5" class="st2" width="2047" height="511"/>
		<path class="st2" d="M2047,1v510H1V1H2047 M2048,0H0v512h2048V0L2048,0z"/>
	</g>
</g>
<g id="メイン">
	<polyline class="st3" points="0,64 8,62.43 16,60.86 24,59.29 32,57.73 40,56.17 48,54.61 56,53.06 64,51.51 72,49.98 80,48.45 
		88,46.93 96,45.42 104,43.92 112,42.44 120,40.97 128,39.51 136,38.06 144,36.64 152,35.22 160,33.83 168,32.45 176,31.1 
		184,29.76 192,28.44 200,27.15 208,25.88 216,24.63 224,23.4 232,22.2 240,21.02 248,19.87 256,18.75 264,17.65 272,16.58 
		280,15.54 288,14.53 296,13.55 304,12.59 312,11.67 320,10.79 328,9.93 336,9.11 344,8.31 352,7.56 360,6.83 368,6.14 376,5.49 
		384,4.87 392,4.29 400,3.74 408,3.23 416,2.76 424,2.32 432,1.92 440,1.56 448,1.23 456,0.94 464,0.69 472,0.48 480,0.31 488,0.17 
		496,0.08 504,0.02 512,0 520,0.02 528,0.08 536,0.17 544,0.31 552,0.48 560,0.69 568,0.94 576,1.23 584,1.56 592,1.92 600,2.32 
		608,2.76 616,3.23 624,3.74 632,4.29 640,4.87 648,5.49 656,6.14 664,6.83 672,7.56 680,8.31 688,9.11 696,9.93 704,10.79 
		712,11.67 720,12.59 728,13.55 736,14.53 744,15.54 752,16.58 760,17.65 768,18.75 776,19.87 784,21.02 792,22.2 800,23.4 
		808,24.63 816,25.88 824,27.15 832,28.44 840,29.76 848,31.1 856,32.45 864,33.83 872,35.22 880,36.64 888,38.06 896,39.51 
		904,40.97 912,42.44 920,43.92 928,45.42 936,46.93 944,48.45 952,49.98 960,51.51 968,53.06 976,54.61 984,56.17 992,57.73 
		1000,59.29 1008,60.86 1016,62.43 1024,64 1032,65.57 1040,67.14 1048,68.71 1056,70.27 1064,71.83 1072,73.39 1080,74.94 
		1088,76.49 1096,78.02 1104,79.55 1112,81.07 1120,82.58 1128,84.08 1136,85.56 1144,87.03 1152,88.49 1160,89.94 1168,91.36 
		1176,92.78 1184,94.17 1192,95.55 1200,96.9 1208,98.24 1216,99.56 1224,100.85 1232,102.12 1240,103.37 1248,104.6 1256,105.8 
		1264,106.98 1272,108.13 1280,109.25 1288,110.35 1296,111.42 1304,112.46 1312,113.47 1320,114.45 1328,115.41 1336,116.33 
		1344,117.21 1352,118.07 1360,118.89 1368,119.69 1376,120.44 1384,121.17 1392,121.86 1400,122.51 1408,123.13 1416,123.71 
		1424,124.26 1432,124.77 1440,125.24 1448,125.68 1456,126.08 1464,126.44 1472,126.77 1480,127.06 1488,127.31 1496,127.52 
		1504,127.69 1512,127.83 1520,127.92 1528,127.98 1536,128 1544,127.98 1552,127.92 1560,127.83 1568,127.69 1576,127.52 
		1584,127.31 1592,127.06 1600,126.77 1608,126.44 1616,126.08 1624,125.68 1632,125.24 1640,124.77 1648,124.26 1656,123.71 
		1664,123.13 1672,122.51 1680,121.86 1688,121.17 1696,120.44 1704,119.69 1712,118.89 1720,118.07 1728,117.21 1736,116.33 
		1744,115.41 1752,114.45 1760,113.47 1768,112.46 1776,111.42 1784,110.35 1792,109.25 1800,108.13 1808,106.98 1816,105.8 
		1824,104.6 1832,103.37 1840,102.12 1848,100.85 1856,99.56 1864,98.24 1872,96.9 1880,95.55 1888,94.17 1896,92.78 1904,91.36 
		1912,89.94 1920,88.49 1928,87.03 1936,85.56 1944,84.08 1952,82.58 1960,81.07 1968,79.55 1976,78.02 1984,76.49 1992,74.94 
		2000,73.39 2008,71.83 2016,70.27 2024,68.71 2032,67.14 2040,65.57 2048,64 2048,0 0,0 	"/>
	<polyline class="st3" points="0,64 8,60.86 16,57.73 24,54.61 32,51.51 40,48.45 48,45.42 56,42.44 64,39.51 72,36.64 80,33.83 
		88,31.1 96,28.44 104,25.88 112,23.4 120,21.02 128,18.75 136,16.58 144,14.53 152,12.59 160,10.79 168,9.11 176,7.56 184,6.14 
		192,4.87 200,3.74 208,2.76 216,1.92 224,1.23 232,0.69 240,0.31 248,0.08 256,0 264,0.08 272,0.31 280,0.69 288,1.23 296,1.92 
		304,2.76 312,3.74 320,4.87 328,6.14 336,7.56 344,9.11 352,10.79 360,12.59 368,14.53 376,16.58 384,18.75 392,21.02 400,23.4 
		408,25.88 416,28.44 424,31.1 432,33.83 440,36.64 448,39.51 456,42.44 464,45.42 472,48.45 480,51.51 488,54.61 496,57.73 
		504,60.86 512,64 520,67.14 528,70.27 536,73.39 544,76.49 552,79.55 560,82.58 568,85.56 576,88.49 584,91.36 592,94.17 600,96.9 
		608,99.56 616,102.12 624,104.6 632,106.98 640,109.25 648,111.42 656,113.47 664,115.41 672,117.21 680,118.89 688,120.44 
		696,121.86 704,123.13 712,124.26 720,125.24 728,126.08 736,126.77 744,127.31 752,127.69 760,127.92 768,128 776,127.92 
		784,127.69 792,127.31 800,126.77 808,126.08 816,125.24 824,124.26 832,123.13 840,121.86 848,120.44 856,118.89 864,117.21 
		872,115.41 880,113.47 888,111.42 896,109.25 904,106.98 912,104.6 920,102.12 928,99.56 936,96.9 944,94.17 952,91.36 960,88.49 
		968,85.56 976,82.58 984,79.55 992,76.49 1000,73.39 1008,70.27 1016,67.14 1024,64 1032,60.86 1040,57.73 1048,54.61 1056,51.51 
		1064,48.45 1072,45.42 1080,42.44 1088,39.51 1096,36.64 1104,33.83 1112,31.1 1120,28.44 1128,25.88 1136,23.4 1144,21.02 
		1152,18.75 1160,16.58 1168,14.53 1176,12.59 1184,10.79 1192,9.11 1200,7.56 1208,6.14 1216,4.87 1224,3.74 1232,2.76 1240,1.92 
		1248,1.23 1256,0.69 1264,0.31 1272,0.08 1280,0 1288,0.08 1296,0.31 1304,0.69 1312,1.23 1320,1.92 1328,2.76 1336,3.74 
		1344,4.87 1352,6.14 1360,7.56 1368,9.11 1376,10.79 1384,12.59 1392,14.53 1400,16.58 1408,18.75 1416,21.02 1424,23.4 
		1432,25.88 1440,28.44 1448,31.1 1456,33.83 1464,36.64 1472,39.51 1480,42.44 1488,45.42 1496,48.45 1504,51.51 1512,54.61 
		1520,57.73 1528,60.86 1536,64 1544,67.14 1552,70.27 1560,73.39 1568,76.49 1576,79.55 1584,82.58 1592,85.56 1600,88.49 
		1608,91.36 1616,94.17 1624,96.9 1632,99.56 1640,102.12 1648,104.6 1656,106.98 1664,109.25 1672,111.42 1680,113.47 1688,115.41 
		1696,117.21 1704,118.89 1712,120.44 1720,121.86 1728,123.13 1736,124.26 1744,125.24 1752,126.08 1760,126.77 1768,127.31 
		1776,127.69 1784,127.92 1792,128 1800,127.92 1808,127.69 1816,127.31 1824,126.77 1832,126.08 1840,125.24 1848,124.26 
		1856,123.13 1864,121.86 1872,120.44 1880,118.89 1888,117.21 1896,115.41 1904,113.47 1912,111.42 1920,109.25 1928,106.98 
		1936,104.6 1944,102.12 1952,99.56 1960,96.9 1968,94.17 1976,91.36 1984,88.49 1992,85.56 2000,82.58 2008,79.55 2016,76.49 
		2024,73.39 2032,70.27 2040,67.14 2048,64 2048,0 0,0 	"/>
	<polyline class="st3" points="0,64 8,59.29 16,54.61 24,49.98 32,45.42 40,40.97 48,36.64 56,32.45 64,28.44 72,24.63 80,21.02 
		88,17.65 96,14.53 104,11.67 112,9.11 120,6.83 128,4.87 136,3.23 144,1.92 152,0.94 160,0.31 168,0.02 176,0.08 184,0.48 
		192,1.23 200,2.32 208,3.74 216,5.49 224,7.56 232,9.93 240,12.59 248,15.54 256,18.75 264,22.2 272,25.88 280,29.76 288,33.83 
		296,38.06 304,42.44 312,46.93 320,51.51 328,56.17 336,60.86 344,65.57 352,70.27 360,74.94 368,79.55 376,84.08 384,88.49 
		392,92.78 400,96.9 408,100.85 416,104.6 424,108.13 432,111.42 440,114.45 448,117.21 456,119.69 464,121.86 472,123.71 
		480,125.24 488,126.44 496,127.31 504,127.83 512,128 520,127.83 528,127.31 536,126.44 544,125.24 552,123.71 560,121.86 
		568,119.69 576,117.21 584,114.45 592,111.42 600,108.13 608,104.6 616,100.85 624,96.9 632,92.78 640,88.49 648,84.08 656,79.55 
		664,74.94 672,70.27 680,65.57 688,60.86 696,56.17 704,51.51 712,46.93 720,42.44 728,38.06 736,33.83 744,29.76 752,25.88 
		760,22.2 768,18.75 776,15.54 784,12.59 792,9.93 800,7.56 808,5.49 816,3.74 824,2.32 832,1.23 840,0.48 848,0.08 856,0.02 
		864,0.31 872,0.94 880,1.92 888,3.23 896,4.87 904,6.83 912,9.11 920,11.67 928,14.53 936,17.65 944,21.02 952,24.63 960,28.44 
		968,32.45 976,36.64 984,40.97 992,45.42 1000,49.98 1008,54.61 1016,59.29 1024,64 1032,68.71 1040,73.39 1048,78.02 1056,82.58 
		1064,87.03 1072,91.36 1080,95.55 1088,99.56 1096,103.37 1104,106.98 1112,110.35 1120,113.47 1128,116.33 1136,118.89 
		1144,121.17 1152,123.13 1160,124.77 1168,126.08 1176,127.06 1184,127.69 1192,127.98 1200,127.92 1208,127.52 1216,126.77 
		1224,125.68 1232,124.26 1240,122.51 1248,120.44 1256,118.07 1264,115.41 1272,112.46 1280,109.25 1288,105.8 1296,102.12 
		1304,98.24 1312,94.17 1320,89.94 1328,85.56 1336,81.07 1344,76.49 1352,71.83 1360,67.14 1368,62.43 1376,57.73 1384,53.06 
		1392,48.45 1400,43.92 1408,39.51 1416,35.22 1424,31.1 1432,27.15 1440,23.4 1448,19.87 1456,16.58 1464,13.55 1472,10.79 
		1480,8.31 1488,6.14 1496,4.29 1504,2.76 1512,1.56 1520,0.69 1528,0.17 1536,0 1544,0.17 1552,0.69 1560,1.56 1568,2.76 
		1576,4.29 1584,6.14 1592,8.31 1600,10.79 1608,13.55 1616,16.58 1624,19.87 1632,23.4 1640,27.15 1648,31.1 1656,35.22 
		1664,39.51 1672,43.92 1680,48.45 1688,53.06 1696,57.73 1704,62.43 1712,67.14 1720,71.83 1728,76.49 1736,81.07 1744,85.56 
		1752,89.94 1760,94.17 1768,98.24 1776,102.12 1784,105.8 1792,109.25 1800,112.46 1808,115.41 1816,118.07 1824,120.44 
		1832,122.51 1840,124.26 1848,125.68 1856,126.77 1864,127.52 1872,127.92 1880,127.98 1888,127.69 1896,127.06 1904,126.08 
		1912,124.77 1920,123.13 1928,121.17 1936,118.89 1944,116.33 1952,113.47 1960,110.35 1968,106.98 1976,103.37 1984,99.56 
		1992,95.55 2000,91.36 2008,87.03 2016,82.58 2024,78.02 2032,73.39 2040,68.71 2048,64 2048,0 0,0 	"/>
</g>
</svg>
