<?xml version="1.0" encoding="utf-8"?>
<!-- Generator: Adobe Illustrator 23.0.3, SVG Export Plug-In . SVG Version: 6.00 Build 0)  -->
<svg version="1.1" xmlns="http://www.w3.org/2000/svg" xmlns:xlink="http://www.w3.org/1999/xlink" x="0px" y="0px"
	 viewBox="0 0 256 256" style="enable-background:new 0 0 256 256;" xml:space="preserve">
<style type="text/css">
	.st0{display:none;}
	.st1{display:inline;}
	.st2{fill:none;stroke:#FFFFFF;stroke-width:2;stroke-miterlimit:10;}
	.st3{fill:#FFE600;}
</style>
<g id="背景" class="st0">
	<rect y="0" class="st1" width="256" height="256"/>
</g>
<g id="棒">
	<line class="st2" x1="32" y1="64" x2="64" y2="128"/>
	<line class="st2" x1="64" y1="128" x2="32" y2="192"/>
	<line class="st2" x1="96" y1="64" x2="64" y2="128"/>
	<line class="st2" x1="32" y1="64" x2="64" y2="128"/>
	<line class="st2" x1="64" y1="128" x2="96" y2="192"/>
	<line class="st2" x1="160" y1="64" x2="192" y2="128"/>
	<line class="st2" x1="192" y1="128" x2="160" y2="192"/>
	<line class="st2" x1="224" y1="64" x2="192" y2="128"/>
	<line class="st2" x1="160" y1="64" x2="192" y2="128"/>
	<line class="st2" x1="192" y1="128" x2="224" y2="192"/>
	<line class="st2" x1="96" y1="64" x2="160" y2="64"/>
	<line class="st2" x1="96" y1="192" x2="160" y2="192"/>
	<line class="st2" x1="32" y1="64" x2="0" y2="64"/>
	<line class="st2" x1="32" y1="192" x2="0" y2="192"/>
	<line class="st2" x1="256" y1="64" x2="224" y2="64"/>
	<line class="st2" x1="256" y1="192" x2="224" y2="192"/>
</g>
<g id="玉">
	<g>
		<path class="st3" d="M36.76,52h-9.53c-0.76,0-1.45,0.43-1.79,1.11l-5,10c-0.28,0.56-0.28,1.23,0,1.79l5,10
			c0.34,0.68,1.03,1.11,1.79,1.11h9.53c0.76,0,1.45-0.43,1.79-1.11l5-10c0.28-0.56,0.28-1.23,0-1.79l-5-10
			C38.21,52.43,37.52,52,36.76,52z"/>
	</g>
	<g>
		<path class="st3" d="M36.76,180h-9.53c-0.76,0-1.45,0.43-1.79,1.11l-5,10c-0.28,0.56-0.28,1.23,0,1.79l5,10
			c0.34,0.68,1.03,1.11,1.79,1.11h9.53c0.76,0,1.45-0.43,1.79-1.11l5-10c0.28-0.56,0.28-1.23,0-1.79l-5-10
			C38.21,180.43,37.52,180,36.76,180z"/>
	</g>
	<g>
		<path class="st3" d="M100.76,180h-9.53c-0.76,0-1.45,0.43-1.79,1.11l-5,10c-0.28,0.56-0.28,1.23,0,1.79l5,10
			c0.34,0.68,1.03,1.11,1.79,1.11h9.53c0.76,0,1.45-0.43,1.79-1.11l5-10c0.28-0.56,0.28-1.23,0-1.79l-5-10
			C102.21,180.43,101.52,180,100.76,180z"/>
	</g>
	<g>
		<path class="st3" d="M164.76,180h-9.53c-0.76,0-1.45,0.43-1.79,1.11l-5,10c-0.28,0.56-0.28,1.23,0,1.79l5,10
			c0.34,0.68,1.03,1.11,1.79,1.11h9.53c0.76,0,1.45-0.43,1.79-1.11l5-10c0.28-0.56,0.28-1.23,0-1.79l-5-10
			C166.21,180.43,165.52,180,164.76,180z"/>
	</g>
	<g>
		<path class="st3" d="M228.76,180h-9.53c-0.76,0-1.45,0.43-1.79,1.11l-5,10c-0.28,0.56-0.28,1.23,0,1.79l5,10
			c0.34,0.68,1.03,1.11,1.79,1.11h9.53c0.76,0,1.45-0.43,1.79-1.11l5-10c0.28-0.56,0.28-1.23,0-1.79l-5-10
			C230.21,180.43,229.52,180,228.76,180z"/>
	</g>
	<g>
		<path class="st3" d="M100.76,52h-9.53c-0.76,0-1.45,0.43-1.79,1.11l-5,10c-0.28,0.56-0.28,1.23,0,1.79l5,10
			c0.34,0.68,1.03,1.11,1.79,1.11h9.53c0.76,0,1.45-0.43,1.79-1.11l5-10c0.28-0.56,0.28-1.23,0-1.79l-5-10
			C102.21,52.43,101.52,52,100.76,52z"/>
	</g>
	<g>
		<path class="st3" d="M164.76,52h-9.53c-0.76,0-1.45,0.43-1.79,1.11l-5,10c-0.28,0.56-0.28,1.23,0,1.79l5,10
			c0.34,0.68,1.03,1.11,1.79,1.11h9.53c0.76,0,1.45-0.43,1.79-1.11l5-10c0.28-0.56,0.28-1.23,0-1.79l-5-10
			C166.21,52.43,165.52,52,164.76,52z"/>
	</g>
	<g>
		<path class="st3" d="M228.76,52h-9.53c-0.76,0-1.45,0.43-1.79,1.11l-5,10c-0.28,0.56-0.28,1.23,0,1.79l5,10
			c0.34,0.68,1.03,1.11,1.79,1.11h9.53c0.76,0,1.45-0.43,1.79-1.11l5-10c0.28-0.56,0.28-1.23,0-1.79l-5-10
			C230.21,52.43,229.52,52,228.76,52z"/>
	</g>
	<g>
		<path class="st3" d="M68.76,116h-9.53c-0.76,0-1.45,0.43-1.79,1.11l-5,10c-0.28,0.56-0.28,1.23,0,1.79l5,10
			c0.34,0.68,1.03,1.11,1.79,1.11h9.53c0.76,0,1.45-0.43,1.79-1.11l5-10c0.28-0.56,0.28-1.23,0-1.79l-5-10
			C70.21,116.43,69.52,116,68.76,116z"/>
	</g>
	<g>
		<path class="st3" d="M196.76,116h-9.53c-0.76,0-1.45,0.43-1.79,1.11l-5,10c-0.28,0.56-0.28,1.23,0,1.79l5,10
			c0.34,0.68,1.03,1.11,1.79,1.11h9.53c0.76,0,1.45-0.43,1.79-1.11l5-10c0.28-0.56,0.28-1.23,0-1.79l-5-10
			C198.21,116.43,197.52,116,196.76,116z"/>
	</g>
</g>
</svg>
