<?xml version="1.0" encoding="utf-8"?>
<!-- Generator: Adobe Illustrator 23.0.3, SVG Export Plug-In . SVG Version: 6.00 Build 0)  -->
<svg version="1.1" xmlns="http://www.w3.org/2000/svg" xmlns:xlink="http://www.w3.org/1999/xlink" x="0px" y="0px"
	 viewBox="0 0 256 256" style="enable-background:new 0 0 256 256;" xml:space="preserve">
<style type="text/css">
	.st0{fill:#FFE600;}
</style>
<g id="レイヤー_1">
	<g>
		<path class="st0" d="M36.76,52h-9.53c-0.76,0-1.45,0.43-1.79,1.11l-5,10c-0.28,0.56-0.28,1.23,0,1.79l5,10
			c0.34,0.68,1.03,1.11,1.79,1.11h9.53c0.76,0,1.45-0.43,1.79-1.11l5-10c0.28-0.56,0.28-1.23,0-1.79l-5-10
			C38.21,52.43,37.52,52,36.76,52z"/>
	</g>
	<g>
		<path class="st0" d="M36.76,180h-9.53c-0.76,0-1.45,0.43-1.79,1.11l-5,10c-0.28,0.56-0.28,1.23,0,1.79l5,10
			c0.34,0.68,1.03,1.11,1.79,1.11h9.53c0.76,0,1.45-0.43,1.79-1.11l5-10c0.28-0.56,0.28-1.23,0-1.79l-5-10
			C38.21,180.43,37.52,180,36.76,180z"/>
	</g>
	<g>
		<path class="st0" d="M100.76,180h-9.53c-0.76,0-1.45,0.43-1.79,1.11l-5,10c-0.28,0.56-0.28,1.23,0,1.79l5,10
			c0.34,0.68,1.03,1.11,1.79,1.11h9.53c0.76,0,1.45-0.43,1.79-1.11l5-10c0.28-0.56,0.28-1.23,0-1.79l-5-10
			C102.21,180.43,101.52,180,100.76,180z"/>
	</g>
	<g>
		<path class="st0" d="M164.76,180h-9.53c-0.76,0-1.45,0.43-1.79,1.11l-5,10c-0.28,0.56-0.28,1.23,0,1.79l5,10
			c0.34,0.68,1.03,1.11,1.79,1.11h9.53c0.76,0,1.45-0.43,1.79-1.11l5-10c0.28-0.56,0.28-1.23,0-1.79l-5-10
			C166.21,180.43,165.52,180,164.76,180z"/>
	</g>
	<g>
		<path class="st0" d="M228.76,180h-9.53c-0.76,0-1.45,0.43-1.79,1.11l-5,10c-0.28,0.56-0.28,1.23,0,1.79l5,10
			c0.34,0.68,1.03,1.11,1.79,1.11h9.53c0.76,0,1.45-0.43,1.79-1.11l5-10c0.28-0.56,0.28-1.23,0-1.79l-5-10
			C230.21,180.43,229.52,180,228.76,180z"/>
	</g>
	<g>
		<path class="st0" d="M100.76,52h-9.53c-0.76,0-1.45,0.43-1.79,1.11l-5,10c-0.28,0.56-0.28,1.23,0,1.79l5,10
			c0.34,0.68,1.03,1.11,1.79,1.11h9.53c0.76,0,1.45-0.43,1.79-1.11l5-10c0.28-0.56,0.28-1.23,0-1.79l-5-10
			C102.21,52.43,101.52,52,100.76,52z"/>
	</g>
	<g>
		<path class="st0" d="M164.76,52h-9.53c-0.76,0-1.45,0.43-1.79,1.11l-5,10c-0.28,0.56-0.28,1.23,0,1.79l5,10
			c0.34,0.68,1.03,1.11,1.79,1.11h9.53c0.76,0,1.45-0.43,1.79-1.11l5-10c0.28-0.56,0.28-1.23,0-1.79l-5-10
			C166.21,52.43,165.52,52,164.76,52z"/>
	</g>
	<g>
		<path class="st0" d="M228.76,52h-9.53c-0.76,0-1.45,0.43-1.79,1.11l-5,10c-0.28,0.56-0.28,1.23,0,1.79l5,10
			c0.34,0.68,1.03,1.11,1.79,1.11h9.53c0.76,0,1.45-0.43,1.79-1.11l5-10c0.28-0.56,0.28-1.23,0-1.79l-5-10
			C230.21,52.43,229.52,52,228.76,52z"/>
	</g>
	<g>
		<path class="st0" d="M68.76,116h-9.53c-0.76,0-1.45,0.43-1.79,1.11l-5,10c-0.28,0.56-0.28,1.23,0,1.79l5,10
			c0.34,0.68,1.03,1.11,1.79,1.11h9.53c0.76,0,1.45-0.43,1.79-1.11l5-10c0.28-0.56,0.28-1.23,0-1.79l-5-10
			C70.21,116.43,69.52,116,68.76,116z"/>
	</g>
	<g>
		<path class="st0" d="M196.76,116h-9.53c-0.76,0-1.45,0.43-1.79,1.11l-5,10c-0.28,0.56-0.28,1.23,0,1.79l5,10
			c0.34,0.68,1.03,1.11,1.79,1.11h9.53c0.76,0,1.45-0.43,1.79-1.11l5-10c0.28-0.56,0.28-1.23,0-1.79l-5-10
			C198.21,116.43,197.52,116,196.76,116z"/>
	</g>
</g>
<g id="レイヤー_2">
</g>
</svg>
