<?xml version="1.0" encoding="utf-8"?>
<!-- Generator: Adobe Illustrator 23.0.3, SVG Export Plug-In . SVG Version: 6.00 Build 0)  -->
<svg version="1.1" xmlns="http://www.w3.org/2000/svg" xmlns:xlink="http://www.w3.org/1999/xlink" x="0px" y="0px"
	 viewBox="0 0 640 640" style="enable-background:new 0 0 640 640;" xml:space="preserve">
<style type="text/css">
	.st0{fill:#FFFFFF;stroke:#000000;stroke-width:0.25;stroke-miterlimit:10;}
</style>
<path d="M128,120"/>
<polygon points="480.76,203 480,203.76 480,203 "/>
<path class="st0" d="M528,140v187.37c0,4.66-3.96,8.33-8.61,7.98l-206.78-15.7c-4.65-0.35-8.61,3.32-8.61,7.98v20.13l19,19v55.8
	l20,16v40.2l20,20v29.82c2.93,1.19,5,4.06,5,7.42c0,4.42-3.58,8-8,8s-8-3.58-8-8c0-3.36,2.07-6.23,5-7.42v-27.34l-14-14v17.34
	c2.93,1.19,5,4.06,5,7.42c0,4.42-3.58,8-8,8s-8-3.58-8-8c0-3.36,2.07-6.23,5-7.42v-63.14l-14-11.2v66.34c2.93,1.19,5,4.06,5,7.42
	c0,4.42-3.58,8-8,8s-8-3.58-8-8c0-3.36,2.07-6.23,5-7.42V369.24l-13-13v202.11c0,1.05,0.42,2.07,1.17,2.82l8,8
	c2.52,2.52,0.73,6.83-2.83,6.83h-44.68c-3.56,0-5.35-4.31-2.83-6.83l8-8c0.75-0.75,1.17-1.77,1.17-2.83v-166.1l-9,9v103.34
	c2.93,1.19,5,4.06,5,7.42c0,4.42-3.58,8-8,8s-8-3.58-8-8c0-3.36,2.07-6.23,5-7.42v-61.9l-14,12.45v45.45c2.93,1.19,5,4.06,5,7.42
	c0,4.42-3.58,8-8,8s-8-3.58-8-8c0-3.36,2.07-6.23,5-7.42v-40.12l-10,8.89v23.23c2.93,1.19,5,4.06,5,7.42c0,4.42-3.58,8-8,8
	s-8-3.58-8-8c0-3.36,2.07-6.23,5-7.42v-25.93l36-32v-35.89l15-15v-87.17c0-4.64,3.94-8.31,8.57-7.98l206.86,14.78
	c4.63,0.33,8.57-3.34,8.57-7.98v-99.17l-10,10v53.34c2.93,1.19,5,4.06,5,7.42c0,4.42-3.58,8-8,8s-8-3.58-8-8
	c0-3.36,2.07-6.23,5-7.42v-47.34l-13,13v34.34c2.93,1.19,5,4.06,5,7.42c0,4.42-3.58,8-8,8s-8-3.58-8-8c0-3.36,2.07-6.23,5-7.42
	v-36.82l35-35V172c0-6.63-5.37-12-12-12H372.24l13,13h55.34c1.19-2.93,4.06-5,7.42-5c4.42,0,8,3.58,8,8c0,4.42-3.58,8-8,8
	c-3.36,0-6.23-2.07-7.42-5h-57.82l-19-19H228.24l29,29h55.34c1.19-2.93,4.06-5,7.42-5c4.42,0,8,3.58,8,8c0,4.42-3.58,8-8,8
	c-3.36,0-6.23-2.07-7.42-5h-57.82l-35-35h-82.14c-1.09,0-2.08,0.49-2.86,1.24c-0.81,0.77-1.78,1.11-2.73,1.11
	c-2.06,0-4.03-1.6-4.03-4.01v-28.68c0-3.53,4.22-5.31,6.75-2.91c0.8,0.76,1.81,1.25,2.91,1.25h18.1l35-35h57.82
	c1.19-2.93,4.06-5,7.42-5c4.42,0,8,3.58,8,8c0,4.42-3.58,8-8,8c-3.36,0-6.23-2.07-7.42-5h-55.34l-14,14h61.34
	c1.19-2.93,4.06-5,7.42-5c4.42,0,8,3.58,8,8c0,4.42-3.58,8-8,8c-3.36,0-6.23-2.07-7.42-5h-67.34l-9,9h132.52l23-23h57.82
	c1.19-2.93,4.06-5,7.42-5c4.42,0,8,3.58,8,8c0,4.42-3.58,8-8,8c-3.36,0-6.23-2.07-7.42-5h-55.34l-17,17h210.77
	C522.64,128,528,133.37,528,140z"/>
</svg>
