<?xml version="1.0" encoding="utf-8"?>
<!-- Generator: Adobe Illustrator 23.0.3, SVG Export Plug-In . SVG Version: 6.00 Build 0)  -->
<svg version="1.1" id="レイヤー_1" xmlns="http://www.w3.org/2000/svg" xmlns:xlink="http://www.w3.org/1999/xlink" x="0px"
	 y="0px" viewBox="0 0 256 256" style="enable-background:new 0 0 256 256;" xml:space="preserve">
<style type="text/css">
	.st0{fill:#4811BF;}
	.st1{fill:#1071C1;}
</style>
<polygon class="st0" points="64,0 64,64 0,128 0,0 "/>
<polygon class="st1" points="64,64 0,128 0,256 64,192 "/>
<polygon class="st0" points="128,0 64,64 64,192 128,128 "/>
<polygon class="st1" points="128,0 64,64 64,0 "/>
<polygon class="st0" points="64,192 64,256 0,256 "/>
<polygon class="st1" points="128,128 128,256 64,256 64,192 "/>
<polygon class="st1" points="192,0 192,64 128,128 128,0 "/>
<polygon class="st0" points="192,64 128,128 128,256 192,192 "/>
<polygon class="st1" points="256,0 192,64 192,192 256,128 "/>
<polygon class="st0" points="256,0 192,64 192,0 "/>
<polygon class="st1" points="192,192 192,256 128,256 "/>
<polygon class="st0" points="256,128 256,256 192,256 192,192 "/>
</svg>
