<?xml version="1.0" encoding="utf-8"?>
<!-- Generator: Adobe Illustrator 23.0.6, SVG Export Plug-In . SVG Version: 6.00 Build 0)  -->
<svg version="1.1" xmlns="http://www.w3.org/2000/svg" xmlns:xlink="http://www.w3.org/1999/xlink" x="0px" y="0px"
	 viewBox="0 0 288 64" style="enable-background:new 0 0 288 64;" xml:space="preserve">
<style type="text/css">
	.st0{display:none;}
	.st1{display:inline;}
	.st2{fill:#FFFFFF;}
	.st3{fill:#29ABE2;}
	.st4{fill:#B3EF54;}
	.st5{fill:#F9FF10;}
</style>
<g id="back" class="st0">
	<rect x="24" y="40" width="176" height="64"/>
	<rect x="-2" class="st1" width="291" height="64"/>
</g>
<g id="text">
	<g>
		<path class="st2" d="M13.81,59.15h-3.24c-0.67,0-1.01-0.34-1.01-1.01V13.86c0-0.67,0.34-1.01,1.01-1.01h16.85
			c3.31,0,5.9,0.95,7.78,2.84c1.87,1.9,2.81,4.5,2.81,7.81v7.99c0,3.36-0.94,5.98-2.81,7.85c-1.87,1.87-4.46,2.81-7.78,2.81H15.54
			c-0.48,0-0.72,0.22-0.72,0.65v15.34C14.82,58.81,14.48,59.15,13.81,59.15z"/>
		<path class="st3" d="M32.74,23.73v7.56c0,4.12-2.01,6.19-6.04,6.19H15.54c-0.48,0-0.72-0.22-0.72-0.65V18.11
			c0-0.43,0.24-0.65,0.72-0.65H26.7C30.73,17.46,32.74,19.55,32.74,23.73z"/>
		<path class="st2" d="M50.96,59.15h-3.24c-0.67,0-1.01-0.34-1.01-1.01V9.54c0-0.67,0.34-1.01,1.01-1.01h3.24
			c0.67,0,1.01,0.34,1.01,1.01v16.7h0.29c1.2-2.54,3.65-3.82,7.34-3.82h4.03c3.26,0,5.81,0.94,7.63,2.81
			c1.82,1.87,2.74,4.49,2.74,7.85v25.06c0,0.67-0.34,1.01-1.01,1.01h-3.24c-0.67,0-1.01-0.34-1.01-1.01V33.3
			c0-4.18-2.02-6.26-6.05-6.26h-4.03c-2.16,0-3.82,0.58-4.97,1.73c-1.15,1.15-1.73,2.78-1.73,4.9v24.48
			C51.97,58.81,51.63,59.15,50.96,59.15z"/>
		<path class="st2" d="M83.93,16.38V9.61c0-0.67,0.31-1.01,0.94-1.01h3.31c0.67,0,1.01,0.34,1.01,1.01v6.77
			c0,0.67-0.34,1.01-1.01,1.01h-3.31C84.25,17.39,83.93,17.05,83.93,16.38z M83.93,58.14v-34.7c0-0.67,0.31-1.01,0.94-1.01h3.31
			c0.67,0,1.01,0.34,1.01,1.01v34.7c0,0.67-0.34,1.01-1.01,1.01h-3.24C84.27,59.15,83.93,58.81,83.93,58.14z"/>
		<path class="st2" d="M103.73,59.15h-3.24c-0.67,0-1.01-0.34-1.01-1.01v-34.7c0-0.67,0.34-1.01,1.01-1.01h3.24
			c0.67,0,1.01,0.34,1.01,1.01v2.81h0.29c1.2-2.54,3.65-3.82,7.34-3.82h4.03c3.26,0,5.81,0.94,7.63,2.81
			c1.82,1.87,2.74,4.49,2.74,7.85v25.06c0,0.67-0.34,1.01-1.01,1.01h-3.24c-0.67,0-1.01-0.34-1.01-1.01V33.3
			c0-4.18-2.02-6.26-6.05-6.26h-4.03c-2.16,0-3.82,0.58-4.97,1.73c-1.15,1.15-1.73,2.78-1.73,4.9v24.48
			C104.74,58.81,104.41,59.15,103.73,59.15z"/>
		<path class="st2" d="M162.92,33.09v9.14c0,0.72-0.34,1.08-1.01,1.08h-20.38c-0.48,0-0.72,0.22-0.72,0.65v4.39
			c0,4.18,2.02,6.26,6.05,6.26h14.69c0.67,0,1.01,0.34,1.01,1.01v2.59c0,0.63-0.34,0.94-1.01,0.94h-15.26
			c-3.32,0-5.92-0.94-7.82-2.81c-1.89-1.87-2.84-4.49-2.84-7.85v-15.4c0-3.36,0.95-5.98,2.84-7.85c1.9-1.87,4.5-2.81,7.82-2.81h6.04
			c3.32,0,5.91,0.94,7.78,2.81S162.92,29.73,162.92,33.09z"/>
		<path class="st2" d="M184.23,59.15h-12.82c-0.67,0-1.01-0.34-1.01-1.01v-2.52c0-0.62,0.33-0.94,1.01-0.94h12.1
			c3.74,0,5.62-1.39,5.62-4.18v-1.37c0-2.54-1.22-4.3-3.67-5.26l-8.5-3.6c-2.45-1.01-4.2-2.2-5.26-3.56
			c-1.06-1.37-1.58-3.18-1.58-5.44c0-5.9,3.24-8.86,9.72-8.86h11.81c0.67,0,1.01,0.34,1.01,1.01v2.52c0,0.62-0.34,0.94-1.01,0.94
			h-10.87c-1.73,0-3.04,0.36-3.92,1.08c-0.89,0.72-1.33,1.56-1.33,2.52v1.22c0,2.02,1.37,3.55,4.1,4.61l8.5,3.82
			c2.5,0.96,4.19,2.23,5.08,3.82c0.89,1.58,1.33,3.77,1.33,6.55C194.53,56.27,191.09,59.15,184.23,59.15z"/>
		<path class="st2" d="M200.36,58.14v-1.37c0-0.86,0.24-1.61,0.72-2.23l17.78-27.22v-0.29h-16.92c-0.67,0-1.01-0.36-1.01-1.08v-2.52
			c0-0.67,0.33-1.01,1.01-1.01h22.1c0.72,0,1.08,0.34,1.08,1.01v2.38c0,0.86-0.22,1.51-0.65,1.94l-17.21,26.5v0.29h17.42
			c0.67,0,1.01,0.36,1.01,1.08v2.52c0,0.67-0.34,1.01-1.01,1.01h-23.26C200.72,59.15,200.36,58.81,200.36,58.14z"/>
		<path class="st2" d="M254.5,38.77c0,0.48-0.24,0.72-0.72,0.72h-15.55c-0.48,0-0.72-0.24-0.72-0.72v-5.54
			c0-4.13,2.02-6.19,6.05-6.19h4.89c4.04,0,6.05,2.06,6.05,6.19V38.77z"/>
		<path class="st2" d="M259.61,33.09v9.14c0,0.72-0.33,1.08-1.01,1.08h-20.37c-0.48,0-0.72,0.22-0.72,0.65v4.39
			c0,4.18,2.02,6.26,6.05,6.26h14.69c0.67,0,1,0.34,1,1.01v2.59c0,0.63-0.33,0.94-1,0.94h-15.27c-3.31,0-5.92-0.94-7.81-2.81
			c-1.9-1.87-2.84-4.49-2.84-7.85v-15.4c0-3.36,0.94-5.98,2.84-7.85c1.89-1.87,4.5-2.81,7.81-2.81h6.05c3.31,0,5.9,0.94,7.78,2.81
			C258.68,27.11,259.61,29.73,259.61,33.09z"/>
		<path class="st2" d="M273.29,49.43v8.71c0,0.67-0.31,1.01-0.94,1.01h-3.67c-0.62,0-0.94-0.34-0.94-1.01v-8.71
			c0-0.62,0.31-0.94,0.94-0.94h3.67C272.98,48.49,273.29,48.81,273.29,49.43z"/>
	</g>
	<path class="st4" d="M158.01,33.69v5.54c0,0.48-0.25,0.72-0.72,0.72h-15.56c-0.48,0-0.72-0.24-0.72-0.72v-5.54
		c0-4.13,2.02-6.19,6.05-6.19h4.9C155.99,27.5,158.01,29.56,158.01,33.69z"/>
	<path class="st5" d="M254.5,33.23v5.54c0,0.48-0.24,0.72-0.72,0.72h-15.55c-0.48,0-0.72-0.24-0.72-0.72v-5.54
		c0-4.13,2.02-6.19,6.05-6.19h4.89C252.49,27.04,254.5,29.1,254.5,33.23z"/>
</g>
</svg>
