<?xml version="1.0" encoding="utf-8"?>
<!-- Generator: Adobe Illustrator 23.0.3, SVG Export Plug-In . SVG Version: 6.00 Build 0)  -->
<svg version="1.1" xmlns="http://www.w3.org/2000/svg" xmlns:xlink="http://www.w3.org/1999/xlink" x="0px" y="0px"
	 viewBox="0 0 256 256" style="enable-background:new 0 0 256 256;" xml:space="preserve">
<style type="text/css">
	.st0{fill:none;stroke:#202020;stroke-width:8;stroke-miterlimit:10;}
</style>
<g>
	<polyline class="st0" points="256,64 208,64 152,64 	"/>
	<polyline class="st0" points="112,64 80,64 0,64 	"/>
	<path class="st0" d="M148,76h-32c-2.21,0-4-1.79-4-4V56c0-2.21,1.79-4,4-4h32c2.21,0,4,1.79,4,4v16C152,74.21,150.21,76,148,76z"/>
	<polyline class="st0" points="112,192 80,192 0,192 	"/>
	<path class="st0" d="M152,192l-37.26-14.9c-1.31-0.53-2.74,0.44-2.74,1.86v26.09c0,1.41,1.43,2.38,2.74,1.86l36.9-14.76
		c0.24-0.09,0.49-0.14,0.74-0.14H208h48"/>
</g>
<g>
	<path class="st0" d="M127.96,256"/>
	<path class="st0" d="M127.09,0"/>
	<path class="st0" d="M191.55,0L192,48l13.17,13.17c1.56,1.56,1.56,4.09,0,5.66L192,80v96l13.17,13.17c1.56,1.56,1.56,4.09,0,5.66
		L192,208l0.42,48"/>
	<path class="st0" d="M63.55,0L64,48l13.17,13.17c1.56,1.56,1.56,4.09,0,5.66L64,80v96l13.17,13.17c1.56,1.56,1.56,4.09,0,5.66
		L64,208l0.42,48"/>
	<path class="st0" d="M64,128"/>
	<path class="st0" d="M40,224"/>
	<path class="st0" d="M192,128"/>
</g>
</svg>
